<svg xmlns="http://www.w3.org/2000/svg"><style>:root svg:not(:target){display:none}</style><svg viewBox="0 0 18 16" fill="none" id="burger-button"><path d="M1 1h16m-16 7h16m-16 7h16" stroke="#1C1C1E" stroke-width="1.5" stroke-linecap="round" stroke-linejoin="round"></path></svg><svg viewBox="0 0 14 14" fill="none" id="close-button"><path d="m13 1-6 6m0 0-6 6m6-6 6 6m-6-6-6-6" stroke="#1C1C1E" stroke-width="1.5" stroke-linecap="round" stroke-linejoin="round"></path></svg><svg viewBox="0 0 10 17" fill="none" id="kmf-facebook-footer"><path d="M8.85.5h-2c-2.24 0-3.7 1.53-3.7 3.9v1.8h-2a.32.32 0 0 0-.32.32v2.6c0 .18.14.32.32.32h2v6.57c0 .18.15.32.32.32h2.62c.18 0 .32-.14.32-.32v-6.57h2.35c.17 0 .31-.14.31-.32v-2.6a.33.33 0 0 0-.09-.23.31.31 0 0 0-.22-.1h-2.35v-1.52c0-.73.17-1.1 1.1-1.1h1.34c.18 0 .32-.15.32-.33v-2.41a.32.32 0 0 0-.32-.33Z" fill="#9D097C"></path></svg><svg viewBox="0 0 14 10" fill="none" id="kmf-hero-arrow"><path d="M12.33 5h-10.66m7.33 3.33s3.33-2.45 3.33-3.33c0-.88-3.33-3.33-3.33-3.33" stroke="#9D097C" stroke-width="1.5" stroke-linecap="round" stroke-linejoin="round"></path></svg><svg viewBox="0 0 16 16" fill="none" id="kmf-instagram-footer"><path fill-rule="evenodd" clip-rule="evenodd" d="M.92 8c0-1.47 0-2.2.14-2.82a5.5 5.5 0 0 1 4.12-4.12c.61-.14 1.35-.14 2.82-.14 1.47 0 2.2 0 2.82.14a5.5 5.5 0 0 1 4.12 4.12c.14.61.14 1.35.14 2.82 0 1.47 0 2.2-.14 2.82a5.5 5.5 0 0 1-4.12 4.12c-.61.14-1.35.14-2.82.14-1.47 0-2.2 0-2.82-.14a5.5 5.5 0 0 1-4.12-4.12c-.14-.61-.14-1.35-.14-2.82Zm7.08-3.75a3.75 3.75 0 1 0 0 7.5 3.75 3.75 0 0 0 0-7.5Zm0 6.1a2.35 2.35 0 1 1 0-4.7 2.35 2.35 0 0 1 0 4.7Zm4.53-6.38a.5.5 0 1 1-1 0 .5.5 0 0 1 1 0Z" fill="#9D097C"></path></svg><svg viewBox="0 0 16 13" fill="none" id="kmf-telegram-footer"><path d="m6.39 8.57-.25 3.5c.35 0 .5-.16.7-.34l1.66-1.6 3.44 2.53c.64.35 1.08.17 1.25-.58l2.27-10.6c.2-.94-.34-1.31-.96-1.08l-13.3 5.1c-.91.35-.9.85-.16 1.08l3.4 1.06 7.9-4.94c.38-.25.72-.11.44.13l-6.4 5.74Z" fill="#9D097C"></path></svg><svg viewBox="0 0 8 5" fill="none" id="language-arrow-header"><path d="m1.34.83 2.92 2.92 2.91-2.92" stroke="#32334C" stroke-linecap="round" stroke-linejoin="round"></path></svg><svg viewBox="0 0 10 7" fill="none" id="navigation-arrow"><path d="m.83 1.33 4.17 4.17 4.17-4.17" stroke="#32334C" stroke-width="1.5" stroke-linecap="round" stroke-linejoin="round"></path></svg></svg>