<svg viewBox="0 0 101 32" fill="none" xmlns="http://www.w3.org/2000/svg"><path d="M11.45 0h7.4v5.29l6.76-5.29h8.2l-7.16 5.6 8.51 9.45h-8.88l-4.84-5.39-2.6 2.05v3.34h-7.39v-15.05Zm38.68 7.32-7.33-7.32h-6.33v15.05h7.22v-6.43l6.44 6.43 6.43-6.41v6.41h7.23v-15.05h-6.34l-7.32 7.32Zm16.31-7.32h22.37v3.22h-14.95v2.56h12.29v3.22h-12.3v6.05h-7.4v-15.05Z" fill="#000"/><mask id="a" style="mask-type:luminance" maskUnits="userSpaceOnUse" x="0" y="17" width="101" height="15"><path d="m74.6 20.46-1.94 5.98h-.03l-2.11-5.98h-2.35l3.34 8.4-1.32 3.13h2.22l4.37-11.54-2.18.01Zm23.47 0-1.94 5.98h-.03l-2.11-5.98h-2.36l3.35 8.4-1.3 3.14h2.2l4.38-11.54h-2.2Zm-94.18 2.44c0 1.48 1.18 1.97 2.24 2.36.87.32 1.67.58 1.67 1.25 0 .75-.73.96-1.4.96a6.08 6.08 0 0 1-2.45-.62v1.76a6.7 6.7 0 0 0 2.66.42c1.67 0 3.41-.67 3.41-2.68 0-1.84-1.57-2.25-2.76-2.65-.7-.24-1.25-.5-1.25-1.06s.71-.84 1.44-.84c.74.04 1.47.22 2.13.54v-1.67a7 7 0 0 0-2.44-.42c-1.64 0-3.25.8-3.25 2.63m20.1-1.07c1.26 0 1.94.9 1.94 2.05h-3.98c.08-1.06.75-2.05 2.04-2.05m-4.26 2.8c0 2.66 1.82 4.43 4.66 4.43 1 .01 2-.17 2.93-.53v-1.75c-.81.44-1.72.68-2.65.69-1.48 0-2.63-.78-2.71-2.2h6.03v-.55c0-2.44-1.18-4.43-4.02-4.43-2.45 0-4.24 1.77-4.24 4.34Zm11.71-2.85h-.03v-1.3h-2.01v8.4h2.2v-5.44a2.5 2.5 0 0 1 2.24-1.29c.33 0 .67.06.99.17v-1.92a4.46 4.46 0 0 0-.98-.11 2.66 2.66 0 0 0-2.42 1.48m20.56 4.53c0-1.19 1.33-1.45 2.2-1.45.43.03.86.1 1.28.22v1.4a3.3 3.3 0 0 1-2.1 1.02c-.7 0-1.39-.42-1.39-1.2m-1.12-5.24v1.63a4.6 4.6 0 0 1 2.62-.81c1.14 0 1.96.49 1.96 1.57v.38a5.63 5.63 0 0 0-1.57-.26c-1.35 0-4.02.41-4.02 2.86 0 1.7 1.3 2.63 3.09 2.63a3.2 3.2 0 0 0 2.63-1.43h.05v1.26h1.92v-5.15c0-2.42-1.4-3.44-3.64-3.44a6.9 6.9 0 0 0-3.03.77m10.58.57h-.03v-1.15h-2.18v8.4h2.18v-5.44a2.4 2.4 0 0 1 2.1-1.37c1.07 0 1.57.7 1.57 2.44v4.37h2.18v-5.24c0-1.95-.95-3.35-3.16-3.35a3.37 3.37 0 0 0-2.65 1.35m23.65.18h-.05a2.51 2.51 0 0 0-2.47-1.53 3.35 3.35 0 0 0-2.81 1.45h-.04v-1.25h-2v8.39h2.18v-5.6a2.24 2.24 0 0 1 1.9-1.2c1.03 0 1.34.9 1.34 1.91v4.89h2.15v-5.47c.36-.62.94-1.32 1.89-1.32 1.04 0 1.35.9 1.35 1.9v4.89h2.2v-5.44c0-1.76-.68-3.14-2.93-3.14a3.1 3.1 0 0 0-2.73 1.53m-85.09 7.05h2.27v-11.58h-2.27v11.58Zm11.35-11.58v11.58h2.17v-4.47h.04l3.3 4.47h2.67l-3.76-4.55 3.4-3.84h-2.51l-3.1 3.79h-.04v-6.98h-2.17Zm29.1 0v11.58h2.18v-5.44a2.4 2.4 0 0 1 2.1-1.37c1.07 0 1.57.7 1.57 2.44v4.37h2.18v-5.24c0-1.95-.94-3.35-3.16-3.35a3.37 3.37 0 0 0-2.66 1.35h-.04v-4.34h-2.17Z" fill="#fff"/></mask><g mask="url(#a)"><path d="M100.26 17.28h-100.26v14.72h100.26v-14.72Z" fill="url(#b)"/></g><defs><linearGradient id="b" x1="-.582" y1="25.434" x2="99.675" y2="25.434" gradientUnits="userSpaceOnUse"><stop stop-color="#0F1177"/><stop offset=".01" stop-color="#0F1177"/><stop offset=".11" stop-color="#1A1077"/><stop offset=".27" stop-color="#390F78"/><stop offset=".5" stop-color="#6A0C7A"/><stop offset=".76" stop-color="#AD087D"/><stop offset="1" stop-color="#F0047F"/></linearGradient></defs></svg>