<svg viewBox="0 0 51 52" fill="none" xmlns="http://www.w3.org/2000/svg"><g clip-path="url(#a)"><path fill-rule="evenodd" clip-rule="evenodd" d="m.62 16.61 4.4 14.34c20.1 5.3 30 3.37 44.3-6.2-15.97 7-33.74 2.26-48.7-8.14Z" fill="#F7D161"/><path fill-rule="evenodd" clip-rule="evenodd" d="M24.97 1.27a12.42 12.42 0 1 1 0 24.84 12.42 12.42 0 0 1 0-24.84Z" fill="#BB4F3B"/><path fill-rule="evenodd" clip-rule="evenodd" d="m25.8 4.9-6.7.7c-4 7.76-3.64 11.6.3 17.19-2.54-6.22.15-12.16 6.4-17.9Z" fill="#F7D161"/><path d="M.74 38.87h1.63v1.98l1.7-1.98h2.16l-1.92 1.98 2 3.28h-2l-1.1-2.16-.84.88v1.28h-1.63v-5.26Zm6.1 0h2.13l.82 3.2.83-3.2h2.13v5.25h-1.33v-4.01l-1.03 4.01h-1.2l-1.02-4.01v4.01h-1.34v-5.25Zm6.95 0h4.03v1.13h-2.4v.92h2.04v1.07h-2.04v2.14h-1.63v-5.26Zm4.51 2.77h2.12v1.13h-2.12v-1.13Zm8.35 3.63h-1.31v-1.15h-3.36v1.15h-1.3v-2.36h.54c.3-.86.45-1.8.45-2.87v-1.17h4.4v4.04h.58v2.36Zm-2.2-2.35v-2.76h-1.31v.07c0 .73-.12 1.62-.37 2.69h1.68Zm2.82-4.05h4.35v1.12h-2.72v.84h2.52v1.06h-2.52v1.04h2.8v1.19h-4.43v-5.25Zm5.3 0h2.13l.83 3.2.82-3.2h2.14v5.25h-1.34v-4.01l-1.02 4.01h-1.2l-1.03-4.01v4.01h-1.33v-5.25Zm6.94 0h4.35v1.12h-2.72v.84h2.53v1.06h-2.53v1.04h2.8v1.19h-4.43v-5.25Zm4.82 0h1.76l.73 2.16.72-2.16h1.65l-1.73 4.06a6.2 6.2 0 0 1-.37.74c-.11.16-.27.29-.47.4-.2.1-.5.16-.85.16-.19 0-.52-.03-.99-.08v-1.1a6 6 0 0 0 .6.04c.37 0 .6-.13.68-.41l-1.73-3.81Zm.16 11.93v-1.15h-.64c-.03.56-.11.94-.27 1.15h.9Zm.3.43h-1.52v.53h-.42v-.96h.21c.1-.1.16-.25.23-.48.05-.21.09-.59.1-1.1h1.63v1.58h.21v.97h-.44v-.54Zm-4.04-2.02h.54v.74h.76v-.74h.53v2.02h-.53v-.84h-.76v.84h-.54v-2.02Zm-1.92 1.02c0 .2.06.34.15.45.1.1.21.16.35.16.13 0 .25-.05.34-.16a.7.7 0 0 0 .15-.47c0-.2-.05-.34-.15-.45a.45.45 0 0 0-.34-.16.45.45 0 0 0-.35.16c-.1.1-.15.27-.15.47Zm-.54-.03c0-.17.04-.35.13-.52.1-.16.21-.3.37-.37a1 1 0 0 1 .54-.14c.3 0 .56.1.74.3.2.2.3.45.3.74a1.02 1.02 0 0 1-1.04 1.07c-.19 0-.36-.04-.54-.12a.8.8 0 0 1-.38-.37 1.32 1.32 0 0 1-.12-.59Zm-2.1.24v-1.24c-.24 0-.41.05-.5.16-.11.1-.16.27-.16.48 0 .4.22.6.66.6Zm.55 0c.15 0 .27-.03.37-.08a.46.46 0 0 0 .23-.2c.04-.08.07-.2.07-.36 0-.4-.23-.6-.67-.6v1.24Zm0 .47v.32h-.55v-.32c-.44-.02-.76-.12-.94-.34-.19-.2-.28-.45-.28-.76 0-.32.09-.57.28-.77.18-.2.5-.3.93-.32v-.28h.55v.28c.44.01.76.12.93.32.19.2.28.45.28.76 0 .3-.1.56-.28.76-.16.23-.47.33-.92.35Zm-3.85-2.51h.25a.57.57 0 0 1-.6.55.6.6 0 0 1-.41-.15.66.66 0 0 1-.19-.4h.27c.01.1.04.16.09.2a.4.4 0 0 0 .24.07.4.4 0 0 0 .24-.07c.07-.04.1-.1.1-.2Zm-1.28.81h.5v1.27l.82-1.27h.52v2.02h-.51v-1.3l-.83 1.3h-.5v-2.02Zm-1.06 0h.54v2.02h-.54v-2.02Zm-1.7 1.68h.49c.13 0 .23-.02.28-.06.05-.04.1-.11.1-.2a.2.2 0 0 0-.13-.2.99.99 0 0 0-.4-.06h-.34v.52Zm-.54-1.68h.54v.84h.53c.21 0 .37.02.48.04a.59.59 0 0 1 .4.55c0 .2-.07.35-.2.44-.13.1-.33.15-.6.15h-1.13v-2.02h-.02Zm-2.37 0h.53v.74h.76v-.74h.54v2.02h-.54v-.84h-.76v.84h-.53v-2.02Zm-1.83 1.68h.43c.15 0 .27-.01.33-.05.07-.04.11-.1.11-.2a.2.2 0 0 0-.12-.2 1.25 1.25 0 0 0-.47-.05h-.26v.5h-.02Zm0-.84h.35c.16 0 .28-.02.36-.06.08-.04.1-.11.1-.2a.21.21 0 0 0-.1-.19c-.07-.04-.19-.05-.37-.05h-.35v.5h.01Zm-.53-.84h1.17c.24 0 .42.04.54.14.12.09.17.21.17.4 0 .1-.03.21-.1.29a.62.62 0 0 1-.23.17c.13.04.24.1.3.19.07.1.11.2.11.3a.5.5 0 0 1-.17.4.8.8 0 0 1-.51.14h-1.27v-2.03h-.01Zm-2.41 0h.5v1.27l.82-1.27h.52v2.02h-.51v-1.3l-.83 1.3h-.5v-2.02Zm-2.12 0h1.82v.43h-.65v1.59h-.53v-1.59h-.64v-.43Zm-.82 1.06-.32.08a.82.82 0 0 0-.29.09c-.07.05-.1.1-.1.19 0 .08.02.13.07.2.06.05.12.08.22.08.09 0 .18-.03.28-.1a.4.4 0 0 0 .13-.17.95.95 0 0 0 .03-.25v-.12h-.02Zm-.72-.44-.48-.1c.06-.2.15-.33.28-.42.14-.1.34-.15.59-.15.24 0 .41.03.53.08.12.05.2.13.24.21.06.1.07.24.07.48v.63c0 .17.01.3.03.39a1 1 0 0 0 .09.26h-.53l-.06-.16-.01-.06a.93.93 0 0 1-.3.2.93.93 0 0 1-.33.06c-.21 0-.37-.05-.49-.17a.54.54 0 0 1-.17-.43.5.5 0 0 1 .08-.3c.05-.1.13-.16.22-.2.1-.06.24-.1.43-.12.25-.04.43-.1.52-.14v-.02c0-.11-.03-.18-.08-.22-.05-.04-.15-.06-.28-.06-.1 0-.17.01-.23.05a.52.52 0 0 0-.12.19Zm-2.25.36c0 .22.04.4.13.5.1.11.2.16.34.16a.4.4 0 0 0 .3-.14c.08-.1.12-.27.12-.5 0-.21-.04-.37-.13-.46-.08-.11-.19-.15-.32-.15a.4.4 0 0 0-.32.15c-.08.09-.12.25-.12.44Zm-.53-.98h.49v.3a.7.7 0 0 1 .27-.26.78.78 0 0 1 .96.19c.16.19.24.44.24.77 0 .34-.08.6-.24.79a.76.76 0 0 1-1.19-.01v1.01h-.53v-2.79Zm-1.94 1.02c0 .2.06.34.15.45.1.1.21.16.35.16.13 0 .25-.05.34-.16a.7.7 0 0 0 .15-.47c0-.2-.05-.34-.15-.45a.45.45 0 0 0-.34-.16.45.45 0 0 0-.35.16.7.7 0 0 0-.15.47Zm-.54-.03c0-.17.04-.35.13-.52.1-.16.21-.3.37-.37a1 1 0 0 1 .54-.14c.3 0 .56.1.74.3.2.2.3.45.3.74a1.02 1.02 0 0 1-1.04 1.07c-.19 0-.36-.04-.54-.12a.8.8 0 0 1-.38-.37 1.32 1.32 0 0 1-.12-.59Zm-2.24-.99h1.78v2.02h-.53v-1.59h-.72v1.59h-.53v-2.02Zm-1.84.98c0 .22.04.4.13.5.1.11.2.16.33.16a.4.4 0 0 0 .31-.14c.08-.1.12-.27.12-.5 0-.21-.04-.37-.13-.46-.08-.11-.19-.15-.32-.15a.4.4 0 0 0-.32.15c-.08.09-.12.25-.12.44Zm-.54-.98h.5v.3a.7.7 0 0 1 .26-.26.76.76 0 0 1 .38-.09c.24 0 .42.1.6.28.16.19.24.44.24.77 0 .34-.08.6-.24.79a.76.76 0 0 1-1.19-.01v1.01h-.53v-2.79h-.02Zm-1.93 1.02c0 .2.05.34.15.45a.45.45 0 0 0 .7 0 .7.7 0 0 0 .14-.47c0-.2-.06-.34-.15-.45a.45.45 0 0 0-.35-.16.45.45 0 0 0-.34.16.7.7 0 0 0-.15.47Zm-.55-.03c0-.17.04-.35.14-.52.09-.16.21-.3.37-.37.16-.1.33-.14.53-.14a1.01 1.01 0 0 1 1.04 1.04 1.02 1.02 0 0 1-1.04 1.07c-.18 0-.36-.04-.53-.12a.8.8 0 0 1-.39-.37 1.32 1.32 0 0 1-.12-.59Zm-2.24-1.75h.56v1.19c.12-.01.22-.04.26-.1.04-.05.1-.2.2-.42.12-.3.24-.5.34-.56.12-.08.31-.1.56-.1h.08v.4h-.08a.5.5 0 0 0-.25.05.32.32 0 0 0-.13.13l-.15.36-.1.24a.6.6 0 0 1-.22.19c.12.04.23.1.3.21.09.1.18.25.27.45l.38.76h-.66l-.33-.72-.03-.05-.06-.13a.78.78 0 0 0-.18-.26c-.04-.04-.12-.05-.21-.05v1.21h-.56v-2.8h.01Z" fill="#000"/></g><defs><clipPath id="a"><path fill="#fff" transform="translate(.62)" d="M0 0h49.76v52h-49.76z"/></clipPath></defs></svg>