<svg viewBox="0 0 105 64" fill="none" xmlns="http://www.w3.org/2000/svg"><g clip-path="url(#a)"><path fill-rule="evenodd" clip-rule="evenodd" d="M40.47 50.65c6.53-9.18 5.38-16.15 1.53-24.81 4.38-1.92 2.53-7.75 2.36-18.03-.04-2.07-.19-1.53-1.18-.6a6 6 0 0 0-1.77 2.81c-.3 1.04.43 3.95.87 4.87-2.74-.64-6.47-2.04-7.3 3.28 0 .72.34 1.8.62 2.3 1.62 2.87 4.76 1.47 5.22 1.36-.64-.97-2.08-1.46-1.1-2.92 1.08-1.59 5.04.67 1.41 3.58-.92.74-1.52 1.2-2.5 1.86.4 1.84 1.75 3.68 2.17 5.48-.76-.6-1.16-1.33-1.88-2.1-1.25-1.33-9.66-9.05-19.84-10.88-8.7-1.56-15.48-8.44-15.83-8.53-.01 2.48 1.5 6.75 2.67 8.64.66 1.09 1.34 2.58 2 3.47 1.95 2.63 6.11 5.7 9.18 7.24 2.24 1.11 5.7 2.55 8.4 2.54-.95 1.43-1.64 1.5-2.57 3.27-4.6 8.68 5.96 17 13.13 12.04a7.53 7.53 0 0 0 2.94-5.09c0-1.97-1.1-3.2-1.45-4.75l-.65.83-.15.22c-.22.35-.45.79-.68 1.14-2.5 3.81-6.2 1.26-6.2-.72 0-4.07 5.84-6.3 9.48-2.91.6.55 1.54 2.16 1.83 2.9 2.84 7.24-4.15 10.81-5.47 12.78 1.08 2.15 2.9 4.56 4.3 6.64l3.95 5.9c.32.4.28.35.38.45 0-2.7.58-5.3-.9-7.44-1.29-1.87-2.12-3.59-2.97-4.83" fill="#624A9D"/><path d="M49.42 21.61h4.73v3.38l4.33-3.38h5.24l-4.58 3.58 5.44 6.04h-5.67l-3.1-3.44-1.66 1.3v2.15h-4.73v-9.63Zm24.73 4.68-4.68-4.68h-4.05v9.62h4.62v-4.11l4.12 4.1 4.11-4.1v4.1h4.62v-9.61h-4.05l-4.68 4.68Zm10.44-4.68h14.3v2.05h-9.56v1.64h7.86v2.06h-7.86v3.87h-4.74v-9.62Z" fill="#533D8D"/><mask id="b" style="mask-type:luminance" maskUnits="userSpaceOnUse" x="49" y="36" width="56" height="22"><path d="M101.75 54.97v2.95h-2.76v-3l-3.07-5.15h2.9l1.67 2.82 1.67-2.82h2.66l-3.08 5.2Zm-8.69 2.95-.02-3.71-1.77 2.98h-1.21l-1.77-2.86v3.6h-2.51v-8.17h2.26l2.66 4.35 2.58-4.35h2.27l.02 8.16h-2.5Zm-10.7-2.95v2.95h-2.76v-3l-3.07-5.15h2.9l1.66 2.82 1.68-2.82h2.66l-3.08 5.2Zm-6.18-5.2v8.16h-2.26l-3.1-3.71v3.7h-2.68v-8.15h2.26l3.1 3.7v-3.7h2.68Zm-12.63 4.75-.8-2.05-.79 2.05h1.59Zm.76 1.99h-3.1l-.55 1.42h-2.8l3.57-8.16h2.7l3.57 8.16h-2.84l-.55-1.42Zm18.43-16.96a.9.9 0 0 0-.28-.7c-.18-.17-.46-.25-.84-.25h-1v1.91h1c.38 0 .66-.08.84-.25a.9.9 0 0 0 .28-.7Zm-1.37 3.03h-.75v2.05h-2.75v-8.15h3.93c.75 0 1.41.12 1.97.37a2.85 2.85 0 0 1 1.75 2.7c0 .59-.14 1.1-.4 1.53a2.8 2.8 0 0 1-1.14 1.04l1.71 2.51h-2.94l-1.39-2.05Zm-4.56-.02v2.07h-6.78v-8.15h6.63v2.07h-3.93v.96h3.45v1.98h-3.45v1.07h4.08Zm-12.38-.63-.61.69v2.01h-2.7v-8.15h2.7v2.96l2.68-2.96h3l-3.27 3.58 3.42 4.57h-3.18l-2.04-2.7Zm-7.93 2.9c-.68 0-1.34-.08-1.98-.23a5.4 5.4 0 0 1-1.58-.62l.89-2a5.66 5.66 0 0 0 2.7.75c.37 0 .64-.04.8-.11.17-.08.25-.19.25-.34 0-.17-.1-.3-.32-.38a6.94 6.94 0 0 0-1.05-.28 11.8 11.8 0 0 1-1.58-.43 2.7 2.7 0 0 1-1.1-.74 2.02 2.02 0 0 1-.46-1.4c0-.52.14-.98.43-1.4.29-.42.72-.75 1.29-1a5.37 5.37 0 0 1 2.08-.35c.56 0 1.1.06 1.65.18.54.12 1.01.3 1.42.53l-.82 2a5 5 0 0 0-2.28-.61c-.7 0-1.06.17-1.06.5 0 .17.1.3.32.38.21.08.56.16 1.04.26.62.11 1.14.25 1.57.4.43.15.8.4 1.11.74.32.34.48.8.48 1.4 0 .51-.15.98-.44 1.4a2.9 2.9 0 0 1-1.28.98 5.2 5.2 0 0 1-2.08.37Zm-7.12-8.35h2.75v8.16h-2.75v-8.16Zm8.04 13.3v8.15h-2.76v-3h-2.54v3h-2.75v-8.16h2.75v2.9h2.55v-2.9h2.75Z" fill="#fff"/></mask><g mask="url(#b)"><path d="M104.82 36.29h-55.44v21.63h55.44v-21.63Z" fill="url(#c)"/></g><path fill-rule="evenodd" clip-rule="evenodd" d="M36.02 33.96c1.04 1.5 2.04 3.71 3.88 6.06v-10.96a3.36 3.36 0 0 0-.24-.2l-3.64 5.1Zm1.54-24.81c.62 1.4 1.78 3.37 2.11 4.73l.23-.44v-6.67a13 13 0 0 0-.23-.17c-.72 1.1-1.46 1.43-2.1 2.55Z" fill="#FDFDFD"/><mask id="d" style="mask-type:luminance" maskUnits="userSpaceOnUse" x="3" y="6" width="43" height="57"><path d="M40.4 50.69c6.54-9.17 5.39-16.15 1.54-24.81 4.38-1.91 2.53-7.74 2.35-18.03-.03-2.07-.18-1.53-1.17-.6a6 6 0 0 0-1.77 2.81c-.3 1.04.43 3.96.87 4.87-2.75-.64-6.48-2.03-7.3 3.28 0 .72.34 1.8.62 2.3 1.62 2.87 4.75 1.47 5.21 1.36-.63-.96-2.08-1.46-1.09-2.92 1.08-1.59 5.03.67 1.4 3.58-.92.75-1.51 1.2-2.49 1.86.39 1.84 1.75 3.68 2.17 5.48-.76-.6-1.16-1.33-1.88-2.1-1.25-1.32-9.66-9.05-19.84-10.88-8.71-1.56-15.48-8.43-15.83-8.52-.01 2.47 1.5 6.74 2.66 8.64.67 1.08 1.34 2.57 2 3.47 1.96 2.62 6.12 5.7 9.2 7.23 2.23 1.11 5.69 2.55 8.39 2.55-.95 1.42-1.64 1.5-2.58 3.27-4.6 8.67 5.97 17 13.13 12.03a7.53 7.53 0 0 0 2.94-5.09c0-1.97-1.09-3.2-1.45-4.75l-.65.83-.14.22c-.22.35-.45.8-.68 1.14-2.5 3.81-6.2 1.26-6.2-.72 0-4.07 5.84-6.3 9.48-2.91.6.56 1.53 2.17 1.83 2.9 2.84 7.24-4.15 10.81-5.47 12.78 1.07 2.15 2.9 4.56 4.3 6.64l3.95 5.9c.32.4.28.35.38.45 0-2.7.57-5.3-.9-7.44-1.3-1.87-2.13-3.59-2.98-4.83" fill="#fff"/></mask><g mask="url(#d)"><path d="M46.94 5.78h-43.76v57.17h43.76v-57.17Z" fill="url(#e)"/></g><mask id="f" style="mask-type:luminance" maskUnits="userSpaceOnUse" x="3" y="6" width="42" height="57"><path d="M40.34 50.73c6.53-9.17 5.38-16.15 1.53-24.81 4.38-1.91 2.54-7.74 2.36-18.03-.04-2.06-.19-1.53-1.18-.6a6 6 0 0 0-1.77 2.82c-.3 1.03.43 3.95.87 4.86-2.74-.63-6.47-2.03-7.3 3.29 0 .72.34 1.8.62 2.3 1.62 2.86 4.76 1.46 5.22 1.36-.64-.97-2.08-1.47-1.1-2.92 1.08-1.6 5.04.67 1.41 3.58-.92.74-1.52 1.19-2.5 1.85.4 1.84 1.75 3.68 2.18 5.48-.77-.6-1.17-1.32-1.89-2.09-1.24-1.33-9.66-9.06-19.84-10.89-8.7-1.56-15.47-8.43-15.83-8.52-.01 2.47 1.5 6.74 2.67 8.64.66 1.08 1.34 2.58 2 3.47 1.95 2.63 6.11 5.7 9.18 7.23 2.24 1.12 5.7 2.55 8.4 2.55-.95 1.42-1.64 1.5-2.57 3.27-4.6 8.67 5.96 17 13.13 12.03a7.52 7.52 0 0 0 2.94-5.09c0-1.97-1.1-3.2-1.45-4.74l-.65.82-.15.23c-.22.35-.45.78-.68 1.13-2.5 3.82-6.2 1.26-6.2-.72 0-4.07 5.84-6.3 9.48-2.9.6.55 1.54 2.16 1.83 2.9 2.85 7.23-4.15 10.8-5.47 12.77 1.08 2.15 2.9 4.56 4.3 6.64l3.95 5.9c.32.41.28.36.38.46 0-2.7.58-5.3-.9-7.45-1.29-1.87-2.12-3.59-2.97-4.82" fill="#fff"/></mask><g mask="url(#f)"><path d="M46.87 5.83h-43.76v57.17h43.76v-57.17Z" fill="url(#g)"/></g><mask id="h" style="mask-type:luminance" maskUnits="userSpaceOnUse" x="3" y="6" width="42" height="58"><path d="M40.27 50.77c6.54-9.17 5.39-16.14 1.54-24.8 4.38-1.92 2.53-7.75 2.35-18.04-.03-2.06-.18-1.52-1.17-.6a6 6 0 0 0-1.77 2.82c-.3 1.03.43 3.95.87 4.87-2.75-.64-6.47-2.04-7.3 3.28 0 .72.34 1.8.62 2.3 1.62 2.86 4.75 1.47 5.22 1.36-.64-.97-2.09-1.46-1.1-2.92 1.08-1.6 5.03.67 1.4 3.58a32.1 32.1 0 0 1-2.49 1.85c.39 1.84 1.75 3.69 2.17 5.49-.76-.6-1.16-1.33-1.88-2.1-1.25-1.33-9.66-9.06-19.84-10.89-8.71-1.55-15.48-8.43-15.83-8.52-.01 2.47 1.5 6.75 2.66 8.64.67 1.09 1.34 2.58 2 3.47 1.96 2.63 6.12 5.7 9.2 7.23 2.23 1.12 5.69 2.55 8.39 2.55-.95 1.43-1.64 1.5-2.58 3.27-4.6 8.67 5.97 17 13.13 12.03a7.53 7.53 0 0 0 2.94-5.08c0-1.97-1.09-3.2-1.45-4.75l-.65.82-.14.23c-.22.35-.45.79-.68 1.14-2.5 3.8-6.2 1.25-6.2-.73 0-4.07 5.84-6.3 9.48-2.9.6.55 1.53 2.16 1.83 2.9 2.84 7.24-4.15 10.8-5.47 12.77 1.07 2.15 2.9 4.56 4.3 6.64l3.95 5.9c.31.41.28.36.38.46 0-2.7.57-5.3-.9-7.44-1.3-1.88-2.12-3.6-2.97-4.83" fill="#fff"/></mask><g mask="url(#h)"><path d="M46.8 5.87h-43.75v57.17h43.76v-57.17Z" fill="url(#i)"/></g><mask id="j" style="mask-type:luminance" maskUnits="userSpaceOnUse" x="2" y="6" width="43" height="58"><path d="M40.2 50.81c6.54-9.17 5.4-16.14 1.54-24.8 4.39-1.92 2.54-7.75 2.36-18.04-.04-2.06-.19-1.52-1.18-.6a6 6 0 0 0-1.77 2.82c-.29 1.04.43 3.95.87 4.87-2.74-.64-6.47-2.04-7.3 3.28 0 .72.34 1.8.62 2.3 1.62 2.87 4.76 1.47 5.22 1.36-.63-.97-2.08-1.46-1.1-2.92 1.08-1.6 5.04.67 1.41 3.58a33.5 33.5 0 0 1-2.5 1.85c.4 1.84 1.76 3.69 2.18 5.49-.77-.6-1.17-1.33-1.89-2.1-1.24-1.33-9.66-9.05-19.84-10.88-8.7-1.56-15.47-8.44-15.83-8.53-.01 2.47 1.5 6.75 2.67 8.64.66 1.09 1.34 2.58 2 3.47 1.95 2.63 6.11 5.7 9.19 7.23 2.23 1.12 5.7 2.55 8.4 2.55-.96 1.43-1.65 1.5-2.58 3.27-4.6 8.67 5.96 17 13.13 12.04a7.53 7.53 0 0 0 2.94-5.1c0-1.96-1.1-3.2-1.45-4.74a101 101 0 0 1-.65.83l-.14.22c-.23.35-.46.79-.69 1.14-2.5 3.81-6.2 1.25-6.2-.73 0-4.07 5.84-6.3 9.48-2.9.6.55 1.54 2.16 1.83 2.9 2.85 7.24-4.15 10.81-5.47 12.77 1.08 2.16 2.9 4.56 4.3 6.65l3.96 5.9c.31.4.27.35.37.45 0-2.7.58-5.3-.9-7.44-1.29-1.88-2.12-3.6-2.97-4.83" fill="#fff"/></mask><g mask="url(#j)"><path d="M46.74 5.91h-43.76v57.17h43.76v-57.17Z" fill="url(#k)"/></g><mask id="l" style="mask-type:luminance" maskUnits="userSpaceOnUse" x="2" y="6" width="43" height="58"><path d="M40.14 50.86c6.54-9.18 5.39-16.15 1.54-24.81 4.38-1.91 2.53-7.75 2.35-18.03-.03-2.07-.18-1.53-1.17-.6a6 6 0 0 0-1.77 2.81c-.3 1.04.43 3.95.87 4.87-2.75-.64-6.47-2.03-7.3 3.28 0 .72.34 1.8.62 2.3 1.62 2.87 4.76 1.47 5.22 1.36-.64-.97-2.09-1.46-1.1-2.92 1.08-1.59 5.03.67 1.41 3.58-.92.75-1.52 1.2-2.5 1.86.4 1.84 1.75 3.68 2.17 5.48-.76-.6-1.16-1.33-1.88-2.1-1.25-1.32-9.66-9.05-19.84-10.88-8.7-1.56-15.48-8.44-15.83-8.53-.01 2.47 1.5 6.75 2.66 8.64.67 1.09 1.34 2.58 2 3.47 1.96 2.63 6.12 5.7 9.2 7.23 2.23 1.12 5.69 2.55 8.39 2.55-.95 1.43-1.64 1.5-2.57 3.27-4.6 8.67 5.96 17 13.12 12.03a7.53 7.53 0 0 0 2.94-5.08c0-1.97-1.09-3.2-1.45-4.75l-.65.83-.14.22c-.22.35-.45.79-.68 1.14-2.5 3.8-6.2 1.25-6.2-.73 0-4.07 5.84-6.3 9.48-2.9.6.55 1.53 2.16 1.83 2.9 2.84 7.24-4.15 10.81-5.47 12.77 1.08 2.15 2.9 4.56 4.3 6.65l3.95 5.9c.32.4.28.35.38.45 0-2.7.58-5.3-.9-7.44-1.3-1.88-2.12-3.6-2.97-4.83" fill="#fff"/></mask><g mask="url(#l)"><path d="M46.68 5.95h-43.76v57.17h43.76v-57.17Z" fill="url(#m)"/></g><mask id="n" style="mask-type:luminance" maskUnits="userSpaceOnUse" x="2" y="6" width="43" height="58"><path d="M40.08 50.9c6.53-9.18 5.38-16.15 1.54-24.81 4.38-1.92 2.53-7.75 2.35-18.03-.04-2.07-.19-1.53-1.18-.6a6 6 0 0 0-1.76 2.81c-.3 1.04.42 3.95.86 4.87-2.74-.64-6.47-2.04-7.3 3.28 0 .72.34 1.8.63 2.3 1.61 2.87 4.75 1.47 5.21 1.36-.63-.97-2.08-1.46-1.1-2.92 1.08-1.59 5.04.67 1.41 3.58-.92.74-1.52 1.2-2.5 1.86.4 1.84 1.76 3.68 2.18 5.48-.77-.6-1.17-1.33-1.89-2.1-1.24-1.33-9.66-9.05-19.84-10.88-8.7-1.56-15.47-8.44-15.83-8.53 0 2.48 1.5 6.75 2.67 8.64.66 1.09 1.34 2.58 2 3.47 1.95 2.63 6.11 5.7 9.19 7.24 2.23 1.11 5.7 2.55 8.4 2.54-.96 1.43-1.65 1.5-2.58 3.27-4.6 8.68 5.97 17 13.13 12.04a7.53 7.53 0 0 0 2.94-5.09c0-1.97-1.1-3.2-1.45-4.75l-.65.83-.14.22c-.23.35-.46.79-.69 1.14-2.5 3.81-6.2 1.26-6.2-.72 0-4.07 5.84-6.3 9.48-2.91.6.55 1.54 2.16 1.83 2.9 2.85 7.24-4.15 10.81-5.47 12.78 1.08 2.15 2.91 4.56 4.3 6.64l3.96 5.9c.31.4.28.35.38.45 0-2.7.57-5.3-.9-7.44-1.3-1.87-2.13-3.59-2.98-4.83" fill="#fff"/></mask><g mask="url(#n)"><path d="M46.61 6h-43.76v57.16h43.76v-57.17Z" fill="url(#o)"/></g><mask id="p" style="mask-type:luminance" maskUnits="userSpaceOnUse" x="2" y="6" width="43" height="58"><path d="M40.01 50.94c6.54-9.17 5.39-16.15 1.54-24.81 4.38-1.91 2.53-7.74 2.36-18.03-.04-2.07-.19-1.53-1.18-.6a6 6 0 0 0-1.77 2.81c-.3 1.04.43 3.96.87 4.87-2.74-.64-6.47-2.03-7.3 3.28 0 .72.34 1.8.62 2.3 1.62 2.87 4.76 1.47 5.22 1.36-.64-.96-2.08-1.46-1.1-2.92 1.08-1.59 5.04.67 1.41 3.58-.92.75-1.52 1.2-2.5 1.86.4 1.84 1.75 3.68 2.17 5.48-.76-.6-1.16-1.33-1.88-2.1-1.25-1.32-9.66-9.05-19.84-10.88-8.7-1.56-15.48-8.43-15.83-8.52-.01 2.47 1.5 6.74 2.67 8.64.66 1.08 1.34 2.57 2 3.47 1.95 2.62 6.11 5.7 9.18 7.23 2.24 1.11 5.7 2.55 8.4 2.55-.95 1.42-1.64 1.5-2.57 3.27-4.6 8.67 5.96 17 13.13 12.03a7.53 7.53 0 0 0 2.94-5.09c0-1.97-1.1-3.2-1.45-4.75l-.65.83-.15.22c-.22.35-.45.8-.68 1.14-2.5 3.81-6.2 1.26-6.2-.72 0-4.07 5.84-6.3 9.48-2.91.6.56 1.54 2.17 1.83 2.9 2.84 7.24-4.15 10.81-5.47 12.78 1.08 2.15 2.9 4.56 4.3 6.64l3.95 5.9c.32.4.28.35.38.45 0-2.7.58-5.3-.9-7.44-1.29-1.87-2.12-3.59-2.97-4.83" fill="#fff"/></mask><g mask="url(#p)"><path d="M46.55 6.03h-43.76v57.17h43.76v-57.17Z" fill="url(#q)"/></g><mask id="r" style="mask-type:luminance" maskUnits="userSpaceOnUse" x="2" y="6" width="43" height="58"><path d="M39.95 50.98c6.53-9.17 5.38-16.15 1.54-24.81 4.38-1.91 2.53-7.74 2.35-18.03-.04-2.06-.18-1.53-1.18-.6a6 6 0 0 0-1.76 2.82c-.3 1.03.43 3.95.86 4.86-2.74-.63-6.47-2.03-7.3 3.29 0 .72.34 1.8.63 2.3 1.62 2.86 4.75 1.46 5.21 1.36-.63-.97-2.08-1.46-1.1-2.92 1.08-1.6 5.04.67 1.41 3.58-.92.74-1.51 1.19-2.5 1.85.4 1.84 1.76 3.68 2.18 5.48-.77-.6-1.17-1.32-1.89-2.09-1.24-1.33-9.66-9.06-19.84-10.89-8.7-1.56-15.47-8.43-15.83-8.52 0 2.47 1.5 6.74 2.67 8.64.67 1.08 1.34 2.58 2 3.47 1.95 2.63 6.12 5.7 9.19 7.23 2.24 1.12 5.7 2.55 8.4 2.55-.96 1.43-1.64 1.5-2.58 3.27-4.6 8.67 5.97 17 13.13 12.03a7.53 7.53 0 0 0 2.94-5.08c0-1.98-1.09-3.21-1.45-4.75l-.65.82-.14.23c-.23.35-.46.78-.68 1.13-2.51 3.82-6.2 1.26-6.2-.72 0-4.07 5.83-6.3 9.47-2.9.6.55 1.54 2.16 1.83 2.9 2.85 7.23-4.15 10.8-5.47 12.77 1.08 2.15 2.91 4.56 4.3 6.64l3.96 5.9c.31.41.28.36.38.46 0-2.7.57-5.3-.9-7.45-1.3-1.87-2.13-3.59-2.98-4.82" fill="#fff"/></mask><g mask="url(#r)"><path d="M46.49 6.08h-43.77v57.17h43.77v-57.17Z" fill="url(#s)"/></g><mask id="t" style="mask-type:luminance" maskUnits="userSpaceOnUse" x="2" y="6" width="43" height="58"><path d="M39.89 51.02c6.53-9.17 5.38-16.14 1.53-24.8 4.38-1.92 2.54-7.75 2.36-18.04-.04-2.06-.19-1.52-1.18-.6a6 6 0 0 0-1.77 2.82c-.3 1.03.43 3.95.87 4.87-2.74-.64-6.47-2.04-7.3 3.28 0 .72.34 1.8.62 2.3 1.62 2.86 4.76 1.47 5.22 1.36-.64-.97-2.08-1.46-1.1-2.92 1.08-1.6 5.04.67 1.41 3.58-.92.74-1.52 1.19-2.5 1.85.4 1.84 1.75 3.69 2.18 5.49-.77-.6-1.17-1.33-1.89-2.1-1.24-1.33-9.66-9.06-19.84-10.89-8.7-1.55-15.48-8.43-15.83-8.52-.01 2.47 1.5 6.75 2.67 8.64.66 1.09 1.34 2.58 2 3.47 1.95 2.63 6.11 5.7 9.18 7.23 2.24 1.12 5.7 2.55 8.4 2.55-.95 1.43-1.64 1.5-2.57 3.27-4.6 8.67 5.96 17 13.13 12.03a7.53 7.53 0 0 0 2.94-5.08c0-1.97-1.1-3.2-1.45-4.75l-.65.82-.15.23c-.22.35-.45.79-.68 1.14-2.5 3.8-6.2 1.25-6.2-.73 0-4.07 5.84-6.3 9.48-2.9.6.55 1.54 2.16 1.83 2.9 2.85 7.24-4.15 10.8-5.47 12.77 1.08 2.15 2.9 4.56 4.3 6.64l3.95 5.9c.32.41.28.36.38.46 0-2.7.58-5.3-.9-7.44-1.29-1.88-2.12-3.6-2.97-4.83" fill="#fff"/></mask><g mask="url(#t)"><path d="M46.42 6.12h-43.76v57.17h43.76v-57.17Z" fill="url(#u)"/></g><mask id="v" style="mask-type:luminance" maskUnits="userSpaceOnUse" x="2" y="6" width="43" height="58"><path d="M39.82 51.06c6.53-9.17 5.38-16.14 1.54-24.8 4.38-1.92 2.53-7.75 2.35-18.04-.04-2.06-.18-1.52-1.18-.6a6 6 0 0 0-1.76 2.82c-.3 1.04.43 3.95.86 4.87-2.74-.64-6.47-2.04-7.3 3.28 0 .72.34 1.8.63 2.3 1.62 2.87 4.75 1.47 5.21 1.36-.63-.97-2.08-1.46-1.1-2.92 1.08-1.6 5.04.67 1.42 3.58a31.6 31.6 0 0 1-2.5 1.85c.39 1.84 1.75 3.69 2.17 5.49-.76-.6-1.17-1.33-1.89-2.1-1.24-1.33-9.66-9.05-19.84-10.88-8.7-1.56-15.47-8.44-15.83-8.53 0 2.47 1.5 6.75 2.67 8.64.67 1.09 1.34 2.58 2 3.47 1.95 2.63 6.12 5.7 9.19 7.23 2.24 1.12 5.7 2.56 8.4 2.55-.96 1.43-1.64 1.5-2.58 3.27-4.6 8.67 5.97 17 13.13 12.04a7.52 7.52 0 0 0 2.94-5.1c0-1.96-1.09-3.2-1.45-4.74a101 101 0 0 1-.65.83l-.14.22c-.23.35-.45.79-.68 1.14-2.51 3.81-6.2 1.25-6.2-.73 0-4.07 5.83-6.29 9.47-2.9.6.55 1.54 2.16 1.83 2.9 2.85 7.24-4.15 10.81-5.46 12.77 1.07 2.16 2.9 4.56 4.3 6.65l3.95 5.9c.31.4.28.35.38.45 0-2.7.57-5.3-.9-7.44-1.3-1.88-2.13-3.6-2.98-4.83" fill="#fff"/></mask><g mask="url(#v)"><path d="M46.36 6.16h-43.76v57.17h43.76v-57.17Z" fill="url(#w)"/></g><mask id="x" style="mask-type:luminance" maskUnits="userSpaceOnUse" x="2" y="6" width="43" height="58"><path d="M39.76 51.1c6.53-9.17 5.38-16.14 1.53-24.8 4.38-1.91 2.54-7.75 2.36-18.03-.04-2.07-.19-1.53-1.18-.6a6 6 0 0 0-1.77 2.81c-.29 1.04.43 3.95.87 4.87-2.74-.64-6.47-2.03-7.3 3.28 0 .72.34 1.8.62 2.3 1.62 2.87 4.76 1.47 5.22 1.36-.63-.97-2.08-1.46-1.1-2.92 1.08-1.59 5.04.67 1.41 3.58-.92.75-1.52 1.2-2.5 1.86.4 1.84 1.76 3.68 2.18 5.48-.77-.6-1.17-1.33-1.89-2.1-1.24-1.32-9.66-9.05-19.84-10.88-8.7-1.56-15.48-8.44-15.83-8.53-.01 2.48 1.5 6.75 2.67 8.64.66 1.09 1.34 2.58 2 3.47 1.95 2.63 6.11 5.7 9.19 7.24 2.23 1.11 5.7 2.55 8.4 2.54-.96 1.43-1.65 1.5-2.58 3.27-4.6 8.68 5.96 17 13.13 12.04a7.53 7.53 0 0 0 2.94-5.09c0-1.97-1.1-3.2-1.45-4.75a101 101 0 0 1-.65.83l-.14.22c-.23.35-.46.79-.69 1.14-2.5 3.81-6.2 1.26-6.2-.72 0-4.07 5.84-6.3 9.48-2.91a11 11 0 0 1 1.83 2.9c2.85 7.24-4.15 10.81-5.47 12.78 1.08 2.15 2.9 4.56 4.3 6.64l3.96 5.9c.31.4.27.35.37.45 0-2.7.58-5.3-.9-7.44-1.29-1.87-2.12-3.59-2.97-4.83" fill="#fff"/></mask><g mask="url(#x)"><path d="M46.3 6.2h-43.77v57.17h43.76v-57.17Z" fill="url(#y)"/></g><mask id="z" style="mask-type:luminance" maskUnits="userSpaceOnUse" x="2" y="6" width="43" height="58"><path d="M39.7 51.15c6.53-9.17 5.37-16.15 1.53-24.81 4.38-1.91 2.53-7.74 2.35-18.03-.03-2.07-.18-1.53-1.17-.6a6 6 0 0 0-1.77 2.82c-.3 1.03.43 3.95.86 4.86-2.74-.63-6.47-2.03-7.3 3.29 0 .71.34 1.8.63 2.3 1.62 2.86 4.75 1.46 5.21 1.35-.63-.96-2.08-1.46-1.1-2.91 1.09-1.6 5.04.66 1.42 3.58a34.3 34.3 0 0 1-2.5 1.85c.39 1.84 1.75 3.68 2.17 5.48-.76-.6-1.17-1.32-1.88-2.09-1.25-1.33-9.67-9.06-19.85-10.89-8.7-1.56-15.47-8.44-15.83-8.52 0 2.47 1.5 6.74 2.67 8.64.67 1.08 1.34 2.57 2 3.47 1.96 2.62 6.12 5.7 9.19 7.23 2.24 1.11 5.7 2.55 8.4 2.55-.96 1.42-1.64 1.5-2.58 3.27-4.6 8.67 5.97 17 13.13 12.03a7.52 7.52 0 0 0 2.94-5.09c0-1.97-1.09-3.2-1.45-4.75l-.65.83-.14.22c-.22.36-.45.8-.68 1.14-2.5 3.81-6.2 1.26-6.2-.72 0-4.07 5.83-6.3 9.47-2.91.6.56 1.54 2.17 1.83 2.9 2.85 7.24-4.14 10.81-5.46 12.78 1.07 2.15 2.9 4.56 4.3 6.64l3.95 5.9c.32.4.28.36.38.46 0-2.7.57-5.3-.9-7.45-1.3-1.87-2.13-3.59-2.98-4.82" fill="#fff"/></mask><g mask="url(#z)"><path d="M46.23 6.24h-43.76v57.18h43.76v-57.18Z" fill="url(#A)"/></g><mask id="B" style="mask-type:luminance" maskUnits="userSpaceOnUse" x="2" y="6" width="43" height="58"><path d="M39.63 51.19c6.53-9.17 5.38-16.15 1.53-24.8 4.39-1.92 2.54-7.75 2.36-18.04-.04-2.06-.19-1.53-1.18-.6a6 6 0 0 0-1.76 2.82c-.3 1.03.42 3.95.86 4.86-2.74-.63-6.47-2.03-7.3 3.29 0 .72.34 1.8.63 2.3 1.61 2.86 4.75 1.46 5.21 1.36-.63-.97-2.08-1.46-1.1-2.92 1.08-1.6 5.04.67 1.41 3.58-.92.74-1.52 1.19-2.5 1.85.4 1.84 1.76 3.68 2.18 5.48-.77-.6-1.17-1.32-1.89-2.09-1.24-1.33-9.66-9.06-19.84-10.89-8.7-1.56-15.48-8.43-15.83-8.52 0 2.47 1.5 6.74 2.67 8.64.66 1.08 1.34 2.57 2 3.47 1.95 2.62 6.11 5.7 9.19 7.23 2.23 1.11 5.7 2.55 8.4 2.55-.96 1.42-1.65 1.5-2.58 3.27-4.6 8.67 5.96 17 13.13 12.03a7.53 7.53 0 0 0 2.94-5.09c0-1.97-1.1-3.2-1.45-4.75l-.65.83-.14.22c-.23.35-.46.8-.69 1.14-2.5 3.81-6.2 1.26-6.2-.72 0-4.07 5.84-6.3 9.48-2.91.6.56 1.54 2.17 1.83 2.9 2.85 7.24-4.15 10.81-5.47 12.78 1.08 2.15 2.91 4.56 4.3 6.64l3.96 5.9c.31.4.28.35.38.45 0-2.7.57-5.3-.9-7.44-1.3-1.87-2.13-3.59-2.98-4.83" fill="#fff"/></mask><g mask="url(#B)"><path d="M46.16 6.28h-43.76v57.18h43.76v-57.18Z" fill="url(#C)"/></g><mask id="D" style="mask-type:luminance" maskUnits="userSpaceOnUse" x="2" y="6" width="43" height="58"><path d="M39.56 51.23c6.54-9.17 5.39-16.15 1.54-24.81 4.38-1.91 2.53-7.74 2.35-18.03-.03-2.06-.18-1.53-1.17-.6a6 6 0 0 0-1.77 2.82c-.3 1.03.43 3.95.87 4.86-2.75-.63-6.47-2.03-7.3 3.29 0 .72.34 1.8.62 2.3 1.62 2.86 4.75 1.46 5.21 1.36-.63-.97-2.08-1.46-1.09-2.92 1.08-1.6 5.03.67 1.4 3.58a32.1 32.1 0 0 1-2.49 1.85c.39 1.84 1.75 3.68 2.17 5.48-.76-.6-1.16-1.32-1.88-2.09-1.25-1.33-9.66-9.06-19.84-10.89-8.7-1.56-15.48-8.43-15.83-8.52-.01 2.47 1.5 6.74 2.66 8.64.67 1.08 1.34 2.58 2 3.47 1.96 2.63 6.12 5.7 9.2 7.23 2.23 1.12 5.69 2.55 8.39 2.55-.95 1.43-1.64 1.5-2.58 3.27-4.6 8.67 5.97 17 13.13 12.03a7.52 7.52 0 0 0 2.94-5.08c0-1.98-1.09-3.21-1.45-4.75l-.65.82-.14.23c-.22.35-.45.78-.68 1.13-2.5 3.82-6.2 1.26-6.2-.72 0-4.07 5.84-6.3 9.48-2.9.6.55 1.53 2.16 1.83 2.9 2.84 7.23-4.15 10.8-5.47 12.77 1.07 2.15 2.9 4.56 4.3 6.64l3.95 5.9c.32.41.28.36.38.46 0-2.7.57-5.3-.9-7.45-1.3-1.87-2.12-3.59-2.98-4.82" fill="#fff"/></mask><g mask="url(#D)"><path d="M46.1 6.33h-43.76v57.17h43.76v-57.17Z" fill="url(#E)"/></g><mask id="F" style="mask-type:luminance" maskUnits="userSpaceOnUse" x="2" y="7" width="43" height="57"><path d="M39.5 51.27c6.53-9.17 5.38-16.14 1.54-24.8 4.38-1.92 2.53-7.75 2.35-18.04-.04-2.06-.18-1.52-1.18-.6a6 6 0 0 0-1.76 2.82c-.3 1.03.43 3.95.86 4.87-2.74-.64-6.47-2.04-7.3 3.28 0 .72.34 1.8.63 2.3 1.62 2.86 4.75 1.47 5.21 1.36-.63-.97-2.08-1.46-1.1-2.92 1.08-1.6 5.04.67 1.41 3.58-.92.74-1.51 1.19-2.5 1.85.4 1.84 1.76 3.69 2.18 5.49-.77-.6-1.17-1.33-1.89-2.1-1.24-1.33-9.66-9.06-19.84-10.89-8.7-1.55-15.47-8.43-15.83-8.52 0 2.47 1.5 6.75 2.67 8.64.67 1.09 1.34 2.58 2 3.47 1.95 2.63 6.12 5.7 9.19 7.23 2.24 1.12 5.7 2.55 8.4 2.55-.96 1.43-1.64 1.5-2.58 3.27-4.6 8.67 5.97 17 13.13 12.03a7.53 7.53 0 0 0 2.94-5.08c0-1.97-1.09-3.2-1.45-4.75a101 101 0 0 1-.65.82l-.14.23c-.23.35-.46.79-.69 1.14-2.5 3.8-6.2 1.25-6.2-.73 0-4.07 5.84-6.3 9.48-2.9.6.55 1.54 2.16 1.83 2.9 2.85 7.24-4.15 10.8-5.47 12.77 1.08 2.15 2.91 4.56 4.3 6.64l3.96 5.9c.31.41.28.36.38.46 0-2.7.57-5.3-.9-7.44-1.3-1.88-2.13-3.6-2.98-4.83" fill="#fff"/></mask><g mask="url(#F)"><path d="M46.03 6.37h-43.76v57.17h43.76v-57.17Z" fill="url(#G)"/></g><mask id="H" style="mask-type:luminance" maskUnits="userSpaceOnUse" x="2" y="7" width="43" height="57"><path d="M39.43 51.31c6.54-9.17 5.39-16.14 1.54-24.8 4.38-1.92 2.53-7.75 2.35-18.04-.03-2.06-.18-1.52-1.17-.6a6 6 0 0 0-1.77 2.82c-.3 1.04.43 3.95.87 4.87-2.75-.64-6.47-2.04-7.3 3.28 0 .72.34 1.8.62 2.3 1.62 2.87 4.76 1.47 5.22 1.36-.64-.97-2.09-1.46-1.1-2.92 1.08-1.6 5.03.67 1.4 3.58-.91.74-1.51 1.2-2.49 1.85.4 1.84 1.75 3.69 2.17 5.49-.76-.6-1.16-1.33-1.88-2.1-1.25-1.33-9.66-9.05-19.84-10.88-8.7-1.56-15.48-8.44-15.83-8.53-.01 2.47 1.5 6.75 2.66 8.64.67 1.09 1.34 2.58 2 3.47 1.96 2.63 6.12 5.7 9.2 7.23 2.23 1.12 5.69 2.56 8.39 2.55-.95 1.43-1.64 1.5-2.57 3.27-4.6 8.67 5.96 17 13.12 12.04a7.52 7.52 0 0 0 2.94-5.1c0-1.96-1.09-3.2-1.45-4.74l-.65.83-.14.22c-.22.35-.45.79-.68 1.14-2.5 3.81-6.2 1.25-6.2-.73 0-4.07 5.84-6.29 9.48-2.9.6.55 1.53 2.16 1.83 2.9 2.84 7.24-4.15 10.81-5.47 12.77 1.08 2.16 2.9 4.56 4.3 6.65l3.95 5.9c.32.4.28.35.38.45 0-2.7.57-5.3-.9-7.44-1.3-1.88-2.12-3.6-2.97-4.83" fill="#fff"/></mask><g mask="url(#H)"><path d="M45.97 6.41h-43.76v57.17h43.76v-57.17Z" fill="url(#I)"/></g><mask id="J" style="mask-type:luminance" maskUnits="userSpaceOnUse" x="2" y="7" width="43" height="57"><path d="M39.37 51.36c6.53-9.18 5.38-16.15 1.54-24.81 4.38-1.91 2.53-7.75 2.35-18.03-.04-2.07-.18-1.53-1.18-.6a6 6 0 0 0-1.76 2.81c-.3 1.04.43 3.95.86 4.87-2.74-.64-6.47-2.03-7.3 3.28 0 .72.34 1.8.63 2.3 1.62 2.87 4.75 1.47 5.21 1.36-.63-.97-2.08-1.46-1.1-2.92 1.08-1.59 5.04.67 1.42 3.58-.93.75-1.52 1.2-2.5 1.86.39 1.84 1.75 3.68 2.17 5.48-.76-.6-1.17-1.33-1.89-2.1-1.24-1.32-9.66-9.05-19.84-10.88-8.7-1.56-15.47-8.44-15.83-8.52 0 2.47 1.5 6.74 2.67 8.64.67 1.08 1.34 2.57 2 3.46 1.95 2.63 6.12 5.7 9.19 7.24 2.24 1.11 5.7 2.55 8.4 2.54-.96 1.43-1.64 1.5-2.58 3.27-4.6 8.68 5.97 17 13.13 12.04a7.53 7.53 0 0 0 2.94-5.09c0-1.97-1.09-3.2-1.45-4.75l-.65.83-.14.22c-.23.35-.45.79-.68 1.14-2.51 3.81-6.2 1.26-6.2-.72 0-4.07 5.83-6.3 9.47-2.91a11 11 0 0 1 1.83 2.9c2.85 7.24-4.15 10.81-5.46 12.78 1.07 2.15 2.9 4.56 4.3 6.64l3.95 5.9c.31.4.28.35.38.45 0-2.7.57-5.3-.9-7.44-1.3-1.87-2.13-3.59-2.98-4.83" fill="#fff"/></mask><g mask="url(#J)"><path d="M45.9 6.45h-43.76v57.17h43.76v-57.17Z" fill="url(#K)"/></g><mask id="L" style="mask-type:luminance" maskUnits="userSpaceOnUse" x="2" y="7" width="42" height="57"><path d="M39.3 51.4c6.54-9.17 5.39-16.15 1.54-24.81 4.38-1.91 2.53-7.74 2.35-18.03-.03-2.07-.18-1.53-1.17-.6a6 6 0 0 0-1.77 2.82c-.3 1.03.43 3.95.87 4.86-2.75-.63-6.47-2.03-7.3 3.29 0 .71.34 1.8.62 2.3 1.62 2.86 4.76 1.46 5.22 1.35-.64-.96-2.09-1.46-1.1-2.91 1.08-1.6 5.03.66 1.41 3.58-.92.74-1.52 1.19-2.5 1.85.4 1.84 1.75 3.68 2.17 5.48-.76-.6-1.16-1.32-1.88-2.09-1.25-1.33-9.66-9.06-19.84-10.89-8.7-1.56-15.48-8.43-15.83-8.52-.01 2.47 1.5 6.74 2.66 8.64.67 1.08 1.34 2.57 2 3.47 1.96 2.62 6.12 5.7 9.2 7.23 2.23 1.11 5.69 2.55 8.39 2.55-.95 1.42-1.64 1.5-2.57 3.27-4.6 8.67 5.96 17 13.12 12.03a7.52 7.52 0 0 0 2.94-5.09c0-1.97-1.09-3.2-1.45-4.75l-.65.83-.14.22c-.22.36-.45.8-.68 1.14-2.5 3.81-6.2 1.26-6.2-.72 0-4.07 5.84-6.3 9.48-2.91.6.56 1.54 2.17 1.83 2.9 2.84 7.24-4.15 10.81-5.47 12.78 1.08 2.15 2.9 4.56 4.3 6.64l3.95 5.9c.32.4.28.36.38.46 0-2.7.58-5.3-.9-7.45-1.3-1.87-2.12-3.59-2.97-4.82" fill="#fff"/></mask><g mask="url(#L)"><path d="M45.84 6.5h-43.76v57.17h43.76v-57.18Z" fill="url(#M)"/></g><mask id="N" style="mask-type:luminance" maskUnits="userSpaceOnUse" x="2" y="7" width="42" height="57"><path d="M39.24 51.44c6.53-9.17 5.38-16.15 1.54-24.8 4.38-1.92 2.53-7.75 2.35-18.04-.04-2.06-.18-1.53-1.18-.6a6 6 0 0 0-1.76 2.82c-.3 1.03.43 3.95.86 4.86-2.74-.63-6.47-2.03-7.3 3.29 0 .72.34 1.8.63 2.3 1.62 2.86 4.75 1.46 5.21 1.36-.63-.97-2.08-1.46-1.1-2.92 1.09-1.6 5.04.67 1.42 3.58a34.3 34.3 0 0 1-2.5 1.85c.39 1.84 1.75 3.68 2.17 5.48-.76-.6-1.17-1.32-1.88-2.09-1.25-1.33-9.67-9.06-19.85-10.89-8.7-1.56-15.47-8.43-15.83-8.52 0 2.47 1.5 6.74 2.67 8.64.67 1.08 1.34 2.58 2 3.47 1.96 2.63 6.12 5.7 9.19 7.23 2.24 1.12 5.7 2.55 8.4 2.55-.96 1.43-1.64 1.5-2.58 3.27-4.6 8.67 5.97 17 13.13 12.03a7.53 7.53 0 0 0 2.94-5.08c0-1.98-1.09-3.21-1.45-4.75l-.65.82-.14.23c-.22.35-.45.78-.68 1.13-2.5 3.82-6.2 1.26-6.2-.72 0-4.07 5.83-6.3 9.47-2.9.6.55 1.54 2.16 1.83 2.9 2.85 7.23-4.14 10.8-5.46 12.77 1.07 2.15 2.9 4.56 4.3 6.64l3.95 5.9c.32.41.28.36.38.46 0-2.7.57-5.3-.9-7.44-1.3-1.88-2.13-3.6-2.98-4.83" fill="#fff"/></mask><g mask="url(#N)"><path d="M45.78 6.54h-43.77v57.17h43.77v-57.17Z" fill="url(#O)"/></g><mask id="P" style="mask-type:luminance" maskUnits="userSpaceOnUse" x="1" y="7" width="43" height="57"><path d="M39.17 51.48c6.54-9.17 5.39-16.14 1.54-24.8 4.38-1.92 2.53-7.75 2.36-18.04-.04-2.06-.19-1.52-1.18-.6a6 6 0 0 0-1.77 2.82c-.3 1.03.43 3.95.87 4.87-2.74-.64-6.47-2.04-7.3 3.28 0 .72.34 1.8.62 2.3 1.62 2.86 4.76 1.47 5.22 1.36-.64-.97-2.08-1.46-1.1-2.92 1.08-1.6 5.04.67 1.41 3.58a33.5 33.5 0 0 1-2.5 1.85c.4 1.84 1.75 3.69 2.17 5.49-.76-.6-1.16-1.33-1.88-2.1-1.25-1.33-9.66-9.05-19.84-10.88-8.7-1.57-15.48-8.44-15.83-8.53-.01 2.47 1.5 6.74 2.67 8.64.66 1.08 1.34 2.58 2 3.47 1.95 2.63 6.11 5.7 9.18 7.23 2.24 1.12 5.7 2.55 8.4 2.55-.95 1.43-1.64 1.5-2.57 3.27-4.6 8.67 5.96 17 13.13 12.03a7.52 7.52 0 0 0 2.94-5.08c0-1.98-1.1-3.21-1.45-4.75l-.65.82-.15.23c-.22.35-.45.78-.68 1.13-2.5 3.82-6.2 1.26-6.2-.72 0-4.07 5.84-6.3 9.48-2.9.6.55 1.54 2.16 1.83 2.9 2.84 7.23-4.15 10.8-5.47 12.77 1.08 2.15 2.9 4.56 4.3 6.64l3.95 5.9c.32.41.28.36.38.46 0-2.7.58-5.3-.9-7.45-1.29-1.87-2.12-3.59-2.97-4.82" fill="#fff"/></mask><g mask="url(#P)"><path d="M45.7 6.58h-43.75v57.17h43.76v-57.17Z" fill="url(#Q)"/></g><mask id="R" style="mask-type:luminance" maskUnits="userSpaceOnUse" x="1" y="7" width="43" height="57"><path d="M39.11 51.52c6.54-9.17 5.39-16.14 1.54-24.8 4.38-1.92 2.53-7.75 2.35-18.04-.03-2.06-.18-1.52-1.17-.6a6 6 0 0 0-1.77 2.82c-.3 1.03.43 3.95.87 4.87-2.75-.64-6.48-2.04-7.3 3.28 0 .72.34 1.8.62 2.3 1.62 2.86 4.75 1.47 5.21 1.36-.63-.97-2.08-1.46-1.09-2.92 1.08-1.6 5.03.67 1.4 3.58a32.1 32.1 0 0 1-2.49 1.85c.39 1.84 1.75 3.69 2.17 5.49-.76-.6-1.16-1.33-1.88-2.1-1.25-1.33-9.66-9.06-19.84-10.88-8.71-1.56-15.48-8.44-15.83-8.53-.01 2.47 1.5 6.75 2.66 8.64.67 1.09 1.34 2.58 2 3.47 1.96 2.63 6.12 5.7 9.2 7.23 2.23 1.12 5.69 2.55 8.39 2.55-.95 1.43-1.64 1.5-2.58 3.27-4.6 8.67 5.97 17 13.13 12.03a7.52 7.52 0 0 0 2.94-5.08c0-1.97-1.09-3.2-1.45-4.75l-.65.82-.14.23c-.22.35-.45.79-.68 1.14-2.5 3.8-6.2 1.25-6.2-.73 0-4.07 5.83-6.3 9.48-2.9.6.55 1.53 2.16 1.83 2.9 2.84 7.24-4.15 10.8-5.47 12.77 1.07 2.15 2.9 4.56 4.3 6.64l3.95 5.9c.32.41.28.36.38.46 0-2.7.57-5.3-.9-7.44-1.3-1.88-2.13-3.6-2.98-4.83" fill="#fff"/></mask><g mask="url(#R)"><path d="M45.65 6.62h-43.76v57.17h43.76v-57.17Z" fill="url(#S)"/></g><mask id="T" style="mask-type:luminance" maskUnits="userSpaceOnUse" x="1" y="7" width="43" height="57"><path d="M39.05 51.56c6.53-9.17 5.38-16.14 1.53-24.8 4.38-1.92 2.54-7.75 2.36-18.04-.04-2.06-.19-1.52-1.18-.6a6 6 0 0 0-1.77 2.82c-.3 1.04.43 3.95.87 4.87-2.74-.64-6.47-2.04-7.3 3.28 0 .72.34 1.8.62 2.3 1.62 2.87 4.76 1.47 5.22 1.36-.64-.97-2.08-1.46-1.1-2.92 1.08-1.6 5.04.67 1.41 3.58-.92.74-1.52 1.2-2.5 1.85.4 1.84 1.75 3.69 2.18 5.49-.77-.6-1.17-1.33-1.89-2.1-1.24-1.33-9.66-9.05-19.84-10.88-8.7-1.56-15.48-8.44-15.83-8.53-.01 2.47 1.5 6.75 2.67 8.64.66 1.09 1.34 2.58 2 3.47 1.95 2.63 6.11 5.7 9.18 7.23 2.24 1.12 5.7 2.56 8.4 2.55-.95 1.43-1.64 1.5-2.57 3.27-4.6 8.67 5.96 17 13.13 12.04a7.52 7.52 0 0 0 2.94-5.1c0-1.96-1.1-3.2-1.45-4.74l-.65.83-.15.22c-.22.35-.45.79-.68 1.14-2.5 3.81-6.2 1.25-6.2-.73 0-4.07 5.84-6.29 9.48-2.9.6.55 1.54 2.16 1.83 2.9 2.85 7.24-4.15 10.81-5.47 12.77 1.08 2.16 2.9 4.56 4.3 6.65l3.95 5.9c.32.4.28.35.38.45 0-2.7.58-5.3-.9-7.44-1.29-1.88-2.12-3.6-2.97-4.83" fill="#fff"/></mask><g mask="url(#T)"><path d="M45.58 6.66h-43.76v57.17h43.76v-57.17Z" fill="url(#U)"/></g><mask id="V" style="mask-type:luminance" maskUnits="userSpaceOnUse" x="1" y="7" width="43" height="57"><path d="M38.98 51.6c6.54-9.17 5.39-16.14 1.54-24.8 4.38-1.91 2.53-7.75 2.35-18.03-.03-2.07-.18-1.53-1.17-.6a6 6 0 0 0-1.77 2.81c-.3 1.04.43 3.95.87 4.87-2.75-.64-6.47-2.03-7.3 3.28 0 .72.34 1.8.62 2.3 1.62 2.87 4.76 1.47 5.22 1.36-.64-.97-2.09-1.46-1.1-2.92 1.08-1.59 5.03.67 1.4 3.58-.91.75-1.51 1.2-2.49 1.86.39 1.84 1.75 3.68 2.17 5.48-.76-.6-1.16-1.33-1.88-2.1-1.25-1.32-9.66-9.05-19.84-10.88-8.71-1.56-15.48-8.44-15.83-8.52-.01 2.47 1.5 6.74 2.66 8.64.67 1.08 1.34 2.57 2 3.46 1.96 2.63 6.12 5.7 9.2 7.24 2.23 1.11 5.69 2.55 8.39 2.54-.95 1.43-1.64 1.5-2.57 3.27-4.6 8.68 5.96 17 13.12 12.04a7.53 7.53 0 0 0 2.94-5.09c0-1.97-1.09-3.2-1.45-4.75l-.65.83-.14.22c-.22.35-.45.79-.68 1.14-2.5 3.81-6.2 1.26-6.2-.72 0-4.07 5.84-6.3 9.48-2.91.6.56 1.53 2.16 1.83 2.9 2.84 7.24-4.15 10.81-5.47 12.78 1.08 2.15 2.9 4.56 4.3 6.64l3.95 5.9c.32.4.28.35.38.45 0-2.7.57-5.3-.9-7.44-1.3-1.87-2.12-3.59-2.97-4.83" fill="#fff"/></mask><g mask="url(#V)"><path d="M45.52 6.7h-43.76v57.17h43.76v-57.17Z" fill="url(#W)"/></g><mask id="X" style="mask-type:luminance" maskUnits="userSpaceOnUse" x="1" y="7" width="43" height="57"><path d="M38.92 51.65c6.53-9.17 5.38-16.15 1.53-24.81 4.39-1.91 2.54-7.74 2.36-18.03-.04-2.07-.19-1.53-1.18-.6a6 6 0 0 0-1.77 2.81c-.29 1.04.43 3.96.87 4.87-2.74-.63-6.47-2.03-7.3 3.29 0 .71.34 1.8.62 2.3 1.62 2.86 4.76 1.46 5.22 1.35-.63-.96-2.08-1.46-1.1-2.91 1.08-1.6 5.04.66 1.41 3.58-.92.74-1.52 1.19-2.5 1.85.4 1.84 1.76 3.68 2.18 5.48-.77-.6-1.17-1.32-1.89-2.09-1.24-1.33-9.66-9.06-19.84-10.89-8.7-1.56-15.48-8.43-15.83-8.52-.01 2.47 1.5 6.74 2.67 8.64.66 1.08 1.34 2.57 2 3.47 1.95 2.62 6.11 5.7 9.19 7.23 2.23 1.11 5.7 2.55 8.4 2.55-.96 1.42-1.65 1.5-2.58 3.27-4.6 8.67 5.96 17 13.13 12.03a7.52 7.52 0 0 0 2.94-5.09c0-1.97-1.1-3.2-1.45-4.75l-.65.83-.14.22c-.23.36-.46.8-.69 1.14-2.5 3.81-6.2 1.26-6.2-.72 0-4.07 5.84-6.3 9.48-2.91.6.56 1.54 2.17 1.83 2.9 2.85 7.24-4.15 10.81-5.47 12.78 1.08 2.15 2.9 4.56 4.3 6.64l3.96 5.9c.31.4.27.36.37.46 0-2.7.58-5.3-.9-7.45-1.29-1.87-2.12-3.59-2.97-4.82" fill="#fff"/></mask><g mask="url(#X)"><path d="M45.45 6.74h-43.76v57.18h43.76v-57.18Z" fill="url(#Y)"/></g><mask id="Z" style="mask-type:luminance" maskUnits="userSpaceOnUse" x="1" y="7" width="43" height="57"><path d="M38.85 51.69c6.54-9.17 5.38-16.15 1.54-24.8 4.38-1.92 2.53-7.75 2.35-18.04-.03-2.06-.18-1.53-1.17-.6a6 6 0 0 0-1.77 2.82c-.3 1.03.43 3.95.87 4.86-2.75-.63-6.48-2.03-7.3 3.29 0 .72.33 1.8.62 2.3 1.62 2.86 4.75 1.46 5.21 1.36-.63-.97-2.08-1.46-1.1-2.92 1.09-1.6 5.04.67 1.42 3.58a33.5 33.5 0 0 1-2.5 1.85c.39 1.84 1.75 3.68 2.17 5.48-.76-.6-1.17-1.32-1.88-2.09-1.25-1.33-9.67-9.06-19.85-10.89-8.7-1.55-15.47-8.43-15.83-8.52 0 2.47 1.5 6.74 2.67 8.64.67 1.08 1.34 2.58 2 3.47 1.96 2.63 6.12 5.7 9.19 7.23 2.24 1.12 5.7 2.55 8.4 2.55-.96 1.43-1.64 1.5-2.58 3.27-4.6 8.67 5.97 17 13.13 12.03a7.53 7.53 0 0 0 2.94-5.08c0-1.98-1.09-3.21-1.45-4.75l-.65.82-.14.23c-.22.35-.45.78-.68 1.13-2.5 3.82-6.2 1.26-6.2-.72 0-4.07 5.83-6.3 9.47-2.9.6.55 1.54 2.16 1.83 2.9 2.85 7.23-4.14 10.8-5.46 12.77 1.07 2.15 2.9 4.56 4.3 6.64l3.95 5.9c.32.41.28.36.38.46 0-2.7.57-5.3-.9-7.44-1.3-1.88-2.13-3.6-2.98-4.83" fill="#fff"/></mask><g mask="url(#Z)"><path d="M45.39 6.79h-43.76v57.17h43.76v-57.17Z" fill="url(#aa)"/></g><mask id="ab" style="mask-type:luminance" maskUnits="userSpaceOnUse" x="1" y="7" width="43" height="57"><path d="M38.79 51.73c6.53-9.17 5.38-16.14 1.54-24.8 4.38-1.92 2.53-7.75 2.35-18.04-.04-2.06-.19-1.52-1.18-.6a6 6 0 0 0-1.76 2.82c-.3 1.03.43 3.95.86 4.87-2.74-.64-6.47-2.04-7.3 3.28 0 .72.34 1.8.63 2.3 1.61 2.86 4.75 1.47 5.21 1.36-.63-.97-2.08-1.46-1.1-2.92 1.08-1.6 5.04.67 1.41 3.58-.92.74-1.51 1.19-2.5 1.85.4 1.84 1.76 3.69 2.18 5.49-.77-.6-1.17-1.33-1.89-2.1-1.24-1.33-9.66-9.05-19.84-10.88-8.7-1.56-15.48-8.44-15.83-8.53 0 2.47 1.5 6.75 2.67 8.64.66 1.09 1.34 2.58 2 3.47 1.95 2.63 6.11 5.7 9.19 7.23 2.23 1.12 5.7 2.55 8.4 2.55-.96 1.43-1.65 1.5-2.58 3.27-4.6 8.67 5.97 17 13.13 12.03a7.53 7.53 0 0 0 2.94-5.08c0-1.97-1.1-3.2-1.45-4.75l-.65.83-.14.22c-.23.35-.46.79-.69 1.14-2.5 3.8-6.2 1.25-6.2-.73 0-4.07 5.84-6.3 9.48-2.9.6.55 1.54 2.16 1.83 2.9 2.85 7.24-4.15 10.8-5.47 12.77 1.08 2.15 2.91 4.56 4.3 6.64l3.96 5.9c.31.41.28.36.38.46 0-2.7.57-5.3-.9-7.44-1.3-1.88-2.13-3.6-2.98-4.83" fill="#fff"/></mask><g mask="url(#ab)"><path d="M45.32 6.83h-43.76v57.17h43.76v-57.17Z" fill="url(#ac)"/></g><mask id="ad" style="mask-type:luminance" maskUnits="userSpaceOnUse" x="0" y="0" width="45" height="62"><path d="M39.82 48.04c7-9.81 5.76-17.27 1.65-26.54 4.69-2.05 2.7-8.29 2.51-19.3-.03-2.2-.2-1.63-1.26-.64a6.44 6.44 0 0 0-1.89 3.02c-.31 1.1.46 4.23.93 5.2-2.94-.67-6.92-2.17-7.81 3.52 0 .77.36 1.93.67 2.46 1.73 3.07 5.09 1.57 5.58 1.46-.68-1.04-2.23-1.56-1.18-3.12 1.16-1.7 5.4.71 1.51 3.83-.99.8-1.62 1.27-2.67 1.98.41 1.97 1.87 3.94 2.32 5.87-.82-.65-1.25-1.42-2.02-2.24-1.33-1.43-10.33-9.7-21.22-11.65-9.31-1.67-16.56-9.03-16.94-9.13 0 .74.12 1.62.33 2.56a24.99 24.99 0 0 0 2.52 6.69c.71 1.16 1.44 2.76 2.15 3.71 2.08 2.81 6.54 6.1 9.83 7.74 2.39 1.2 6.1 2.73 8.98 2.72-1.02 1.53-1.75 1.61-2.75 3.5-4.93 9.28 6.38 18.2 14.04 12.88 2.1-1.46 3.15-4.3 3.15-5.44 0-2.11-1.17-3.43-1.55-5.08l-.7.88-.15.24c-.24.37-.48.84-.73 1.22-2.68 4.07-6.63 1.34-6.63-.78 0-4.36 6.24-6.73 10.14-3.11.64.6 1.65 2.32 1.96 3.1 3.04 7.75-4.44 11.57-5.85 13.67 1.15 2.3 3.1 4.88 4.6 7.11l4.23 6.31c.33.44.3.38.4.49 0-2.9.62-5.67-.96-7.96-1.38-2-2.27-3.84-3.18-5.17" fill="#fff"/></mask><g mask="url(#ad)"><path d="M46.81 0h-46.81v61.17h46.81v-61.17Z" fill="url(#ae)"/></g></g><defs><linearGradient id="c" x1="73.553" y1="34.708" x2="80.645" y2="59.504" gradientUnits="userSpaceOnUse"><stop stop-color="#533D8D"/><stop offset="1" stop-color="#DC258E"/></linearGradient><linearGradient id="e" x1="7.253" y1="16.33" x2="42.263" y2="51.803" gradientUnits="userSpaceOnUse"><stop stop-color="#68499C"/><stop offset=".56" stop-color="#684A9D"/><stop offset="1" stop-color="#624A9D"/></linearGradient><linearGradient id="g" x1="7.187" y1="16.372" x2="42.2" y2="51.845" gradientUnits="userSpaceOnUse"><stop stop-color="#6E499C"/><stop offset=".56" stop-color="#6E499C"/><stop offset="1" stop-color="#624B9E"/></linearGradient><linearGradient id="i" x1="7.124" y1="16.414" x2="42.134" y2="51.885" gradientUnits="userSpaceOnUse"><stop stop-color="#73489B"/><stop offset=".56" stop-color="#74489C"/><stop offset="1" stop-color="#614B9E"/></linearGradient><linearGradient id="k" x1="7.058" y1="16.453" x2="42.071" y2="51.927" gradientUnits="userSpaceOnUse"><stop stop-color="#79479B"/><stop offset=".56" stop-color="#79489B"/><stop offset="1" stop-color="#614B9E"/></linearGradient><linearGradient id="m" x1="6.995" y1="16.496" x2="42.005" y2="51.969" gradientUnits="userSpaceOnUse"><stop stop-color="#7D469A"/><stop offset=".56" stop-color="#7E479B"/><stop offset="1" stop-color="#614C9E"/></linearGradient><linearGradient id="o" x1="6.929" y1="16.538" x2="41.942" y2="52.011" gradientUnits="userSpaceOnUse"><stop stop-color="#81459A"/><stop offset=".56" stop-color="#82469A"/><stop offset="1" stop-color="#614C9E"/></linearGradient><linearGradient id="q" x1="6.863" y1="16.58" x2="41.876" y2="52.053" gradientUnits="userSpaceOnUse"><stop stop-color="#864399"/><stop offset=".56" stop-color="#88469A"/><stop offset="1" stop-color="#614C9E"/></linearGradient><linearGradient id="s" x1="6.8" y1="16.622" x2="41.813" y2="52.096" gradientUnits="userSpaceOnUse"><stop stop-color="#8B4298"/><stop offset=".56" stop-color="#8D4499"/><stop offset="1" stop-color="#604C9E"/></linearGradient><linearGradient id="u" x1="6.734" y1="16.664" x2="41.747" y2="52.138" gradientUnits="userSpaceOnUse"><stop stop-color="#904198"/><stop offset=".56" stop-color="#924499"/><stop offset="1" stop-color="#604C9E"/></linearGradient><linearGradient id="w" x1="6.671" y1="16.706" x2="41.681" y2="52.18" gradientUnits="userSpaceOnUse"><stop stop-color="#953F97"/><stop offset=".56" stop-color="#974398"/><stop offset="1" stop-color="#604C9E"/></linearGradient><linearGradient id="y" x1="6.605" y1="16.748" x2="41.618" y2="52.219" gradientUnits="userSpaceOnUse"><stop stop-color="#9A3F96"/><stop offset=".56" stop-color="#9D4298"/><stop offset="1" stop-color="#604C9E"/></linearGradient><linearGradient id="A" x1="6.542" y1="16.788" x2="41.552" y2="52.261" gradientUnits="userSpaceOnUse"><stop stop-color="#9F3D95"/><stop offset=".56" stop-color="#A14197"/><stop offset="1" stop-color="#604D9F"/></linearGradient><linearGradient id="C" x1="6.476" y1="16.83" x2="41.489" y2="52.304" gradientUnits="userSpaceOnUse"><stop stop-color="#A33B94"/><stop offset=".56" stop-color="#A63F96"/><stop offset="1" stop-color="#5F4D9F"/></linearGradient><linearGradient id="E" x1="6.413" y1="16.872" x2="41.423" y2="52.346" gradientUnits="userSpaceOnUse"><stop stop-color="#A83993"/><stop offset=".56" stop-color="#AB3E96"/><stop offset="1" stop-color="#5F4D9F"/></linearGradient><linearGradient id="G" x1="6.347" y1="16.914" x2="41.36" y2="52.388" gradientUnits="userSpaceOnUse"><stop stop-color="#AD3792"/><stop offset=".56" stop-color="#B03D95"/><stop offset="1" stop-color="#5F4D9F"/></linearGradient><linearGradient id="I" x1="6.284" y1="16.956" x2="41.294" y2="52.43" gradientUnits="userSpaceOnUse"><stop stop-color="#B23592"/><stop offset=".56" stop-color="#B63C95"/><stop offset="1" stop-color="#5F4D9F"/></linearGradient><linearGradient id="K" x1="6.218" y1="16.998" x2="41.231" y2="52.472" gradientUnits="userSpaceOnUse"><stop stop-color="#B73291"/><stop offset=".56" stop-color="#BB3A94"/><stop offset="1" stop-color="#5F4D9F"/></linearGradient><linearGradient id="M" x1="6.155" y1="17.04" x2="41.165" y2="52.511" gradientUnits="userSpaceOnUse"><stop stop-color="#BC3090"/><stop offset=".56" stop-color="#C03994"/><stop offset="1" stop-color="#5F4E9F"/></linearGradient><linearGradient id="O" x1="6.089" y1="17.08" x2="41.102" y2="52.554" gradientUnits="userSpaceOnUse"><stop stop-color="#C12D8F"/><stop offset=".56" stop-color="#C53693"/><stop offset="1" stop-color="#5E4E9F"/></linearGradient><linearGradient id="Q" x1="6.026" y1="17.122" x2="41.036" y2="52.596" gradientUnits="userSpaceOnUse"><stop stop-color="#C6298E"/><stop offset=".56" stop-color="#CB3492"/><stop offset="1" stop-color="#5E4E9F"/></linearGradient><linearGradient id="S" x1="5.96" y1="17.164" x2="40.973" y2="52.638" gradientUnits="userSpaceOnUse"><stop stop-color="#CB268E"/><stop offset=".56" stop-color="#D03292"/><stop offset="1" stop-color="#5E4E9F"/></linearGradient><linearGradient id="U" x1="5.897" y1="17.206" x2="40.907" y2="52.68" gradientUnits="userSpaceOnUse"><stop stop-color="#CF228D"/><stop offset=".56" stop-color="#D53091"/><stop offset="1" stop-color="#5E4FA0"/></linearGradient><linearGradient id="W" x1="5.832" y1="17.248" x2="40.844" y2="52.722" gradientUnits="userSpaceOnUse"><stop stop-color="#D41E8C"/><stop offset=".56" stop-color="#DA2E91"/><stop offset="1" stop-color="#5E4FA0"/></linearGradient><linearGradient id="Y" x1="5.768" y1="17.29" x2="40.779" y2="52.764" gradientUnits="userSpaceOnUse"><stop stop-color="#D9178C"/><stop offset=".56" stop-color="#DF2A90"/><stop offset="1" stop-color="#5D4FA0"/></linearGradient><linearGradient id="aa" x1="5.702" y1="17.333" x2="40.715" y2="52.806" gradientUnits="userSpaceOnUse"><stop stop-color="#DE138B"/><stop offset=".56" stop-color="#E5278F"/><stop offset="1" stop-color="#5C4FA0"/></linearGradient><linearGradient id="ac" x1="5.639" y1="17.372" x2="40.65" y2="52.846" gradientUnits="userSpaceOnUse"><stop stop-color="#E3088A"/><stop offset=".56" stop-color="#EC248F"/><stop offset="1" stop-color="#5C4FA0"/></linearGradient><linearGradient id="ae" x1="0" y1="30.585" x2="44.811" y2="30.585" gradientUnits="userSpaceOnUse"><stop stop-color="#E2038B"/><stop offset="1" stop-color="#fff"/></linearGradient><clipPath id="a"><path fill="#fff" d="M0 0h104.82v64h-104.82z"/></clipPath></defs></svg>