<svg viewBox="0 0 16 16" fill="none" xmlns="http://www.w3.org/2000/svg"><path fill-rule="evenodd" clip-rule="evenodd" d="M.92 8c0-1.47 0-2.2.14-2.82a5.5 5.5 0 0 1 4.12-4.12c.61-.14 1.35-.14 2.82-.14 1.47 0 2.2 0 2.82.14a5.5 5.5 0 0 1 4.12 4.12c.14.61.14 1.35.14 2.82 0 1.47 0 2.2-.14 2.82a5.5 5.5 0 0 1-4.12 4.12c-.61.14-1.35.14-2.82.14-1.47 0-2.2 0-2.82-.14a5.5 5.5 0 0 1-4.12-4.12c-.14-.61-.14-1.35-.14-2.82Zm7.08-3.75a3.75 3.75 0 1 0 0 7.5 3.75 3.75 0 0 0 0-7.5Zm0 6.1a2.35 2.35 0 1 1 0-4.7 2.35 2.35 0 0 1 0 4.7Zm4.53-6.38a.5.5 0 1 1-1 0 .5.5 0 0 1 1 0Z" fill="#9D097C"/></svg>