<svg viewBox="0 0 126 40" fill="none" xmlns="http://www.w3.org/2000/svg"><path d="M14.31 0h9.25v6.6l8.45-6.6h10.25l-8.95 7 10.64 11.82h-11.1l-6.05-6.74-3.24 2.56v4.18h-9.25v-18.82Zm48.35 9.15-9.16-9.15h-7.92v18.82h9.03v-8.04l8.05 8.04 8.05-8.03v8.03h9.02v-18.82h-7.92l-9.15 9.15Zm20.4-9.15h27.95v4.03h-18.69v3.2h15.36v4.02h-15.36v7.57h-9.27v-18.82Z" fill="#000"/><mask id="a" style="mask-type:luminance" maskUnits="userSpaceOnUse" x="0" y="21" width="126" height="19"><path d="m93.25 25.58-2.42 7.47h-.04l-2.64-7.47h-2.94l4.18 10.49-1.65 3.92h2.77l5.46-14.42h-2.72Zm29.33 0-2.41 7.47h-.05l-2.63-7.47h-2.95l4.18 10.5-1.63 3.92h2.77l5.46-14.42h-2.74Zm-117.72 3.05c0 1.85 1.48 2.45 2.8 2.94 1.1.41 2.09.74 2.09 1.57 0 .94-.92 1.2-1.75 1.2a7.6 7.6 0 0 1-3.07-.77v2.2a8.6 8.6 0 0 0 3.33.51c2.1 0 4.27-.83 4.27-3.35 0-2.3-1.97-2.8-3.46-3.3-.87-.31-1.56-.63-1.56-1.33 0-.7.89-1.04 1.8-1.04a6.7 6.7 0 0 1 2.67.66v-2.09a8.81 8.81 0 0 0-3.05-.52c-2.06 0-4.06 1-4.06 3.3m25.12-1.34c1.57 0 2.42 1.11 2.42 2.56h-4.97c.1-1.32.94-2.56 2.54-2.56m-5.32 3.49c0 3.33 2.28 5.54 5.83 5.54 1.25.01 2.5-.21 3.66-.66v-2.18a7.27 7.27 0 0 1-3.3.85c-1.86 0-3.3-.97-3.4-2.76h7.53v-.67c0-3.05-1.46-5.55-5.02-5.55-3.07 0-5.3 2.22-5.3 5.43Zm14.64-3.56h-.04v-1.62h-2.51v10.49h2.74v-6.8a3.14 3.14 0 0 1 2.8-1.6c.43 0 .84.07 1.24.2v-2.4c-.4-.09-.8-.14-1.21-.14a3.32 3.32 0 0 0-3.03 1.85m25.7 5.67c0-1.49 1.66-1.81 2.74-1.81.54.04 1.08.13 1.6.27v1.74a4.13 4.13 0 0 1-2.6 1.28c-.9 0-1.75-.52-1.75-1.48m-1.4-6.56v2.03a5.84 5.84 0 0 1 3.27-1.01c1.42 0 2.45.61 2.45 1.97v.46c-.63-.2-1.3-.3-1.97-.32-1.68 0-5.01.52-5.01 3.58 0 2.13 1.62 3.29 3.85 3.29a4 4 0 0 0 3.3-1.79h.05v1.57h2.4v-6.43c0-3.03-1.74-4.3-4.55-4.3a8.68 8.68 0 0 0-3.78.96m13.23.72h-.05v-1.44h-2.72v10.49h2.72v-6.8a3 3 0 0 1 2.62-1.7c1.34 0 1.97.87 1.97 3.04v5.46h2.72v-6.55c0-2.44-1.18-4.18-3.94-4.18a4.21 4.21 0 0 0-3.31 1.69m29.56.22h-.06a3.14 3.14 0 0 0-3.1-1.9 4.19 4.19 0 0 0-3.5 1.8h-.05v-1.57h-2.5v10.49h2.73v-7a2.8 2.8 0 0 1 2.35-1.49c1.3 0 1.7 1.12 1.7 2.38v6.1h2.68v-6.83c.44-.77 1.17-1.65 2.36-1.65 1.3 0 1.69 1.12 1.69 2.38v6.1h2.74v-6.79c0-2.2-.85-3.92-3.66-3.92a3.88 3.88 0 0 0-3.4 1.91m-106.37 8.8h2.84v-14.47h-2.84v14.48Zm14.18-14.47v14.48h2.73v-5.58h.04l4.12 5.58h3.35l-4.7-5.69 4.24-4.8h-3.14l-3.88 4.74h-.04v-8.73h-2.72Zm36.38 0v14.48h2.73v-6.8a3 3 0 0 1 2.61-1.7c1.35 0 1.97.87 1.97 3.04v5.46h2.73v-6.55c0-2.44-1.18-4.18-3.95-4.18a4.2 4.2 0 0 0-3.33 1.68h-.04v-5.43h-2.72Z" fill="#fff"/></mask><g mask="url(#a)"><path d="M125.32 21.6h-125.32v18.4h125.32v-18.4Z" fill="url(#b)"/></g><defs><linearGradient id="b" x1="-.728" y1="31.793" x2="124.593" y2="31.793" gradientUnits="userSpaceOnUse"><stop stop-color="#0F1177"/><stop offset=".01" stop-color="#0F1177"/><stop offset=".11" stop-color="#1A1077"/><stop offset=".27" stop-color="#390F78"/><stop offset=".5" stop-color="#6A0C7A"/><stop offset=".76" stop-color="#AD087D"/><stop offset="1" stop-color="#F0047F"/></linearGradient></defs></svg>